<?xml version="1.0" ?>
<!DOCTYPE svg  PUBLIC '-//W3C//DTD SVG 1.1//EN'  'http://www.w3.org/Graphics/SVG/1.1/DTD/svg11.dtd'>
<!-- Uploaded to: SVG Repo, www.svgrepo.com, Generator: SVG Repo Mixer Tools -->
<svg width="800px" height="800px" viewBox="0 0 32 32" enable-background="new 0 0 32 32" version="1.1" xml:space="preserve" xmlns="http://www.w3.org/2000/svg" xmlns:xlink="http://www.w3.org/1999/xlink">
<g id="Layer_2"/>
<g id="Layer_3"/>
<g id="Layer_4"/>
<g id="Layer_5"/>
<g id="Layer_6"/>
<g id="Layer_7"/>
<g id="Layer_8"/>
<g id="Layer_9"/>
<g id="Layer_10"/>
<g id="Layer_11"/>
<g id="Layer_12">
<path d="M24,14c-3.86,0-7,3.09-7,6.89c0,2.5101,2.7787,6.0173,4.6625,8.11H3V18h9   c0.1298,0,0.2587-0.027,0.3816-0.077c0.0383-0.0158,0.067-0.0452,0.1027-0.0655c0.074-0.041,0.1506-0.0757,0.2157-0.1376   c0.64-0.63,6.3-6.25,6.3-9.83C19,4.09,15.86,1,12,1S5,4.09,5,7.89c0,2.5101,2.7787,6.0173,4.6625,8.11H2c-0.5527,0-1,0.4473-1,1v13   c0,0.5527,0.4473,1,1,1h22c0.1298,0,0.2587-0.027,0.3816-0.077c0.0383-0.0158,0.067-0.0452,0.1027-0.0655   c0.074-0.041,0.1506-0.0757,0.2157-0.1376c0.64-0.63,6.3-6.25,6.3-9.83C31,17.09,27.86,14,24,14z" fill="#2197F3"/>
<path d="M24,14c-3.86,0-7,3.09-7,6.89c0,3.58,5.66,9.2,6.3,9.83C23.5,30.91,23.75,31,24,31s0.5-0.09,0.7-0.28   c0.64-0.63,6.3-6.25,6.3-9.83C31,17.09,27.86,14,24,14z" fill="#3F51B5"/>
<path d="M12,1C8.14,1,5,4.09,5,7.89c0,3.58,5.66,9.2,6.3,9.83C11.5,17.91,11.75,18,12,18s0.5-0.09,0.7-0.28   c0.64-0.63,6.3-6.25,6.3-9.83C19,4.09,15.86,1,12,1z" fill="#3F51B5"/>
<path d="M14,7.89c0,1.11-0.9,2-2,2s-2-0.89-2-2c0-1.1,0.9-2,2-2S14,6.79,14,7.89z" fill="#2197F3"/>
<path d="M26,20.89c0,1.11-0.9,2-2,2s-2-0.89-2-2c0-1.1,0.9-2,2-2S26,19.79,26,20.89z" fill="#2197F3"/>
</g>
<g id="Layer_13"/>
<g id="Layer_14"/>
<g id="Layer_15"/>
<g id="Layer_16"/>
<g id="Layer_17"/>
<g id="Layer_18"/>
<g id="Layer_19"/>
<g id="Maps_11_"/>
<g id="Maps_10_"/>
<g id="Maps_9_"/>
<g id="Maps_8_"/>
<g id="Maps_7_"/>
<g id="Maps_6_"/>
<g id="Maps_5_"/>
<g id="Maps_4_"/>
<g id="Maps_3_"/>
<g id="Maps_2_"/>
<g id="Maps_1_"/>
<g id="Maps"/>
</svg>